# xmcd CD database file
#
# Track frame offsets:
#	150
#	13829
#	26437
#	41437
#	55418
#	66501
#	78486
#	92633
#	107623
#	123128
#	134694
#	146346
#	160269
#	173092
#	185178
#	199378
#	210906
#	224486
#
# Disc length: 3152 seconds
#
# Revision: 1
# Processed by: cddbd v1.5.2PL0 Copyright (c) Steve Scherf et al.
# Submitted via: CDex 1.51
#
DISCID=080c4e12
DTITLE=Count Basie - Count BasieJazzGianysDisc 1
DYEAR=2006
DGENRE=Jazz
TTITLE0=All of me
TTITLE1=Game with what wind
TTITLE2=Cheek to cheek
TTITLE3=It's monday everyday
TTITLE4=Fancy meeting you
TTITLE5=Just a minute
TTITLE6=9:20 special
TTITLE7=Brand new Dolly
TTITLE8=Moon nocturne
TTITLE9=Ham'n'eggs
TTITLE10=Hollywood jump
TTITLE11=My old flame
TTITLE12=Platterbrains
TTITLE13=I never knew
TTITLE14=Beau Brummel
TTITLE15=Bye bye baby
TTITLE16=Feather merchant
TTITLE17=One-two-three O'Loiry
EXTD=YEAR: 2006
EXTT0=
EXTT1=
EXTT2=
EXTT3=
EXTT4=
EXTT5=
EXTT6=
EXTT7=
EXTT8=
EXTT9=
EXTT10=
EXTT11=
EXTT12=
EXTT13=
EXTT14=
EXTT15=
EXTT16=
EXTT17=
PLAYORDER=
